<?xml version="1.0" standalone="no"?>
<!DOCTYPE svg PUBLIC "-//W3C//DTD SVG 20010904//EN"
 "http://www.w3.org/TR/2001/REC-SVG-20010904/DTD/svg10.dtd">
<svg version="1.0" xmlns="http://www.w3.org/2000/svg"
 width="512.000000pt" height="512.000000pt" viewBox="0 0 512.000000 512.000000"
 preserveAspectRatio="xMidYMid meet">
<metadata>
Created by potrace 1.14, written by Peter Selinger 2001-2017
</metadata>
<g transform="translate(0.000000,512.000000) scale(0.100000,-0.100000)"
fill="#000000" stroke="none">
<path d="M2847 3584 c-1 -1 -68 -4 -148 -8 -80 -3 -152 -8 -160 -10 -8 -3 -39
-7 -69 -10 -209 -21 -464 -87 -700 -182 -144 -57 -241 -105 -465 -226 l-140
-77 -93 -5 c-79 -5 -155 -14 -257 -31 -142 -23 -360 -96 -525 -177 -141 -70
-220 -137 -261 -224 -23 -48 -24 -56 -27 -369 -2 -176 0 -330 3 -343 9 -38 55
-49 208 -48 76 1 141 -1 145 -4 4 -3 21 -31 37 -63 66 -133 212 -237 372 -265
206 -36 426 75 526 265 l36 68 1136 0 1136 0 37 -68 c140 -257 474 -349 717
-197 68 43 148 131 187 206 26 50 36 61 57 62 22 0 172 57 334 126 49 22 118
92 148 152 24 49 24 49 27 449 2 292 0 406 -9 422 -17 31 -41 39 -174 58 -22
4 -51 8 -65 10 -14 2 -47 7 -75 11 -27 3 -59 8 -69 10 -10 2 -73 11 -139 20
-110 15 -125 20 -203 64 -308 179 -696 310 -1044 356 -30 4 -66 8 -80 10 -43
6 -399 22 -403 18z m-126 -203 c2 -72 -1 -304 -4 -307 -2 -2 -270 -3 -596 -2
l-592 3 73 37 c193 97 359 160 563 211 135 34 164 40 250 52 22 4 51 8 65 11
14 2 59 7 100 10 41 3 76 7 77 7 1 1 15 3 32 3 27 1 31 -2 32 -25z m514 15
c29 -5 93 -14 145 -21 134 -18 370 -82 534 -145 l30 -11 -74 -74 -74 -75 -452
0 -451 0 -2 171 -2 172 158 -6 c87 -4 172 -9 188 -11z m958 -292 c39 -20 102
-54 139 -76 68 -40 85 -44 308 -74 25 -3 56 -7 69 -9 13 -2 45 -7 70 -11 25
-4 53 -8 61 -9 8 -2 34 -6 58 -10 l43 -7 -3 -46 -3 -47 -122 0 c-68 1 -124 -2
-124 -5 -1 -3 -2 -40 -3 -82 -2 -65 0 -78 13 -79 9 -1 66 -2 126 -3 l110 -1 3
-189 c2 -171 1 -193 -17 -230 -25 -50 -34 -56 -193 -121 -121 -50 -128 -51
-129 -31 -3 70 -36 175 -77 241 -94 153 -251 239 -437 238 -119 0 -183 -20
-283 -87 -130 -86 -216 -233 -223 -378 -2 -31 -6 -38 -23 -39 -63 -3 -643 -4
-652 -1 -9 2 -12 118 -12 428 l0 424 473 0 c261 0 484 4 497 9 13 5 73 59 133
120 61 61 113 111 118 111 4 0 40 -16 80 -36z m-1472 -236 c3 -189 -1 -811 -5
-816 -8 -7 -1356 -9 -1357 -2 0 3 -3 23 -5 45 -12 114 -66 227 -150 310 -269
269 -717 163 -845 -199 -10 -31 -21 -76 -23 -101 -1 -25 -6 -48 -9 -51 -5 -6
-112 -9 -154 -5 -8 1 -11 62 -9 239 1 223 3 239 24 279 28 54 64 81 192 144
183 91 408 157 591 175 35 3 66 8 67 9 2 2 381 4 843 5 l839 1 1 -33z m-1792
-493 c77 -17 156 -75 204 -150 128 -202 3 -476 -235 -513 -318 -50 -521 334
-299 566 89 93 200 126 330 97z m3269 -8 c160 -56 255 -222 221 -387 -15 -75
-42 -124 -96 -176 -135 -131 -340 -129 -474 5 -193 194 -94 515 176 571 52 10
119 6 173 -13z"/>
<path d="M2127 2805 c-2 -5 -3 -44 -3 -85 l1 -75 167 -1 c192 0 177 -9 174
101 l-1 70 -167 0 c-103 0 -169 -4 -171 -10z"/>
</g>
</svg>
