<?xml version="1.0" encoding="utf-8"?>
<!-- Generator: Adobe Illustrator 16.0.0, SVG Export Plug-In . SVG Version: 6.00 Build 0)  -->
<!DOCTYPE svg PUBLIC "-//W3C//DTD SVG 1.1//EN" "http://www.w3.org/Graphics/SVG/1.1/DTD/svg11.dtd">
<svg version="1.1" xmlns="http://www.w3.org/2000/svg" xmlns:xlink="http://www.w3.org/1999/xlink" x="0px" y="0px" width="2000px"
	 height="1400px" viewBox="0 0 2000 1400" enable-background="new 0 0 2000 1400" xml:space="preserve">
<g id="BACKGROUND">
	<rect x="-1" y="1" fill="#FFFFFF" width="2000" height="1400"/>
</g>
<g id="OBJECT">
	<g>
		<g>
			<polygon fill="#3F5D82" points="657.25,715 651.342,985.099 734.056,986.687 751.745,715 			"/>
			<polygon fill="#98B1D7" points="652.32,985 657.829,734 567,734 573.041,985 			"/>
			<polygon fill="none" stroke="#263650" stroke-width="2" stroke-miterlimit="10" points="572.993,982.754 568.546,798 540,798 
				542.528,984 			"/>
			<polygon fill="#98B1D7" points="550,840 550,923 561,923.493 561,840 			"/>
			<polygon fill="#FFFFFF" points="587,805 587,940 632,940 640,805 			"/>
			<polygon fill="#FFFFFF" points="673,805 673,940 718,940 726,805 			"/>
			<circle fill="none" stroke="#263650" stroke-width="2" stroke-miterlimit="10" cx="613.75" cy="765.423" r="18.75"/>
			<circle fill="none" stroke="#263650" stroke-width="2" stroke-miterlimit="10" cx="698.75" cy="757.423" r="18.75"/>
			<g>
				<line fill="none" stroke="#263650" stroke-width="2" stroke-miterlimit="10" x1="598" y1="823" x2="626" y2="823"/>
				<line fill="none" stroke="#263650" stroke-width="2" stroke-miterlimit="10" x1="598" y1="832" x2="626" y2="832"/>
				<line fill="none" stroke="#263650" stroke-width="2" stroke-miterlimit="10" x1="598" y1="840" x2="626" y2="840"/>
				<line fill="none" stroke="#263650" stroke-width="2" stroke-miterlimit="10" x1="598" y1="923" x2="626" y2="923"/>
			</g>
			<g>
				<line fill="none" stroke="#263650" stroke-width="2" stroke-miterlimit="10" x1="685" y1="822" x2="713" y2="822"/>
				<line fill="none" stroke="#263650" stroke-width="2" stroke-miterlimit="10" x1="685" y1="831" x2="713" y2="831"/>
				<line fill="none" stroke="#263650" stroke-width="2" stroke-miterlimit="10" x1="685" y1="839" x2="713" y2="839"/>
				<line fill="none" stroke="#263650" stroke-width="2" stroke-miterlimit="10" x1="685" y1="922" x2="713" y2="922"/>
			</g>
		</g>
		<polygon fill="#CCCCCC" points="728,1174 355,1174 540,983 858.479,989.113 		"/>
		<g>
			<path fill="#F80F30" d="M1575,1210h-498c0,0,61-569.11,135.5-721.55c65.42-133.87,156.68-102.38,222.641-88.65
				c9.149,1.91,17.819,3.47,25.859,4.2c66,6,116,27.41,122,139.7c6,112.3-28,395.01,0,479.649C1611,1108,1575,1210,1575,1210z"/>
			<path fill="none" stroke="#FFFFFF" stroke-width="2" stroke-miterlimit="10" d="M1435.141,399.8
				c31.529,24.79,66.5,58.1,73.859,88.45c14,57.75-21.6,251.73-21.971,371.75c-0.35,113.77,14.311,261.65-9.709,350H1077"/>
		</g>
		<g>
			<path fill="#3F5D82" d="M1127.694,1052.236c0,0-155.24-31.498-207.363,0c-52.124,31.499-74.418,98.995-59.521,143.993
				s44.373,14.039,44.634-10.229c0,0-10.238-90.266,41.222-108.265c42.673-14.926,172.029,9,172.029,9
				S1147.193,1079.235,1127.694,1052.236z"/>
			<path fill="#1D355C" d="M1444,715c0,0,133,277,52,319s-115-136-115-136L1444,715z"/>
			<path fill="#E7AAB0" d="M822.37,631.01l3.296-35.676c0,0-8.629-23.333-1.648-30.667S836.333,558,836.333,558S837,548.667,845,548
				s8-0.667,8-0.667s2-9.333,7.333-8.667s5.333,0.667,5.333,0.667s9.393-66,18.03-67.333s0,66,0,66s12.637-2.667,19.304,8
				s10.667,22.667,10.667,22.667S898.333,586.667,895,600s-18.667,43-18.667,43L822.37,631.01z"/>
			<path fill="#1D355C" d="M1397,991c-8,51-32,195-32,195l-302,6c0,0-1-101-7-141s-36-145-52-196s-20.3-105.221-6-113
				c38.08-20.721,86.57-34.85,136.25-44.33c48.95-9.35,99.061-14.19,141.561-16.4c55.959-2.91,98.709-1.25,108.189,0.73
				c24,5,54,15,60,33S1405,940,1397,991z"/>
			<polygon fill="#98B1D7" points="813,655 813,623 881,641 872,666 			"/>
			<path fill="#1D355C" d="M1019,742c0,0-3-8-21,0s-94,70-111,85s-28,22-28,22l23-188l-68-17l-12-3c0,0-61,224-69,270
				s-14,118,58,112s252-110,252-110L1019,742z"/>
			<path fill="#98B1D7" d="M1275.811,681.27c-15.4,49-44.271,137.291-64.91,200.14C1197.12,923.38,1187,954,1187,954
				c-8.3-10.52-15.45-28.02-21.57-49.23c-18.92-65.459-28.09-166.369-31.18-207.1C1183.2,688.32,1233.311,683.48,1275.811,681.27z"
				/>
			<path fill="#F80F30" d="M1210.9,881.41C1197.12,923.38,1187,954,1187,954c-8.3-10.52-15.45-28.02-21.57-49.23
				c8.771-46,30.24-138.77,30.24-138.77h9.359L1210.9,881.41z"/>
			<path fill="#E7AAB0" d="M1186.334,549.066c0,0-12,67.321-11.334,81.97c0.668,14.649-1.332,21.506,11.334,25.869
				s14,8.571,13.334,16.753c-0.668,8.181-2.901,15.104-12.278,16.287s-6.39,6.231-6.39,6.231s4.943,51.115,18.806,50.491
				s43.862-61.147,43.862-61.147s-8.668,1.774-5.334-11.862c3.334-13.637,8.666-31.09,8.666-31.09s13.969-1.871,16-11.532
				c2.032-9.66-7.695-5.609-4.514-22.907c3.182-17.299,17.182-63.426-18.818-75.27
				C1203.668,521.016,1188.057,539.151,1186.334,549.066z"/>
			<path fill="#FECF06" d="M1184.443,559.967c0,0-19.943-16.822-13.443-43.938s28-28.518,41.5-27.583s32,9.817,41,21.038
				c9,11.22,12.12,24.311,22.311,30.855C1286,546.885,1291,559.04,1290,573.065c0,0-7.248,10.753-8.874,25.713
				c-1.626,14.96-19.496,43.305-35.062,46.898c0,0,15.436-33.808,13.936-55.781c-1.5-21.973-13-28.985-27.5-30.855
				s-30-2.146-30-2.146s-10-2.061-13.5-13.749L1184.443,559.967z"/>
			<path fill="#3F5D82" d="M1143.668,692.667c0,0,12.666,150.665,22,189.333C1175,920.666,1187,954,1187,954v50
				c0,0-43.332-77.334-61.999-96.667s-0.835-39.999,9.249-58.999c0,0-43.248-6.397-37.248-30.699s18.408-75.512,20.666-96.302
				C1119.926,700.543,1127.667,684.667,1143.668,692.667z"/>
			<path fill="#3F5D82" d="M1263.827,677.333c0,0-38.806,161.101-49.601,193.954C1203.431,904.141,1187,946.667,1187,954s0,50,0,50
				s42.47-50,63.235-72.667s32.1-28.667,29.433-41.333c-2.667-12.667-22.667-27.334-22.667-27.334s36.664-8.312,35.999-30.49
				c-0.665-22.177-12.666-94.844-11.332-124.844c1.334-30,1.334-30,1.334-30S1272.133,672.171,1263.827,677.333z"/>
			<path fill="#F80F30" d="M1187.39,746.673c0,0,5.611,17.993,8.278,19.327c2.667,1.332,9.362,0,9.362,0l14.37-19.327
				C1219.4,746.673,1201.777,738.014,1187.39,746.673z"/>
			<path fill="#FFFFFF" d="M1187.39,686.211l12.416,56.455l-18.804,12.666l-6.028-64.425
				C1174.974,690.907,1181.111,682.756,1187.39,686.211z"/>
			<path fill="#FFFFFF" d="M1240.004,679.698l-34.974,62.49l24.487,15.144l20.484-76.062
				C1250.002,681.27,1245.008,677.397,1240.004,679.698z"/>
			<path fill="#29ABE2" d="M1290,533l-37.765,92c0,0-7.042,10.1,2.861,17.55s26.403,15.95,26.403,15.95s8,6,14-9s30.5-83,30.5-83
				s5.5-12,0-18s-24.991-18.5-24.991-18.5S1292.024,527.008,1290,533z"/>
			<path fill="#E7AAB0" d="M1304,673l-11-23.5c0,0-10,1-14.5-18.5s-7.5-21-7.5-21s-13,7.5-12.5,0s-0.014-11.5-0.014-11.5
				s-9.986-1-7.986-7.5s6.5-12.5,6.5-12.5s-5-5-2-10s9-4.5,9-4.5s-7-11-2.5-13.5s24.5-12,31.5-3s20,19.463,20,19.463l8.5-0.963
				c0,0,4,2,3.5,9s2.5,27,4.5,31s15,50,15,50L1304,673z"/>
			<polygon fill="#98B1D7" points="1303.666,692.667 1293,674.667 1355,644.5 1361.666,666 			"/>
			<path fill="#1D355C" d="M1293,693c0,0,99.651,352.013,164.826,345.006C1523,1031,1461.098,872,1444.549,819S1371,656,1371,656
				L1293,693z"/>
			<path fill="none" stroke="#FFFFFF" stroke-width="2" stroke-miterlimit="10" d="M1293,693c0,0,50.729,179.195,103.469,279.336"/>
			<line fill="none" stroke="#FFFFFF" stroke-width="2" stroke-miterlimit="10" x1="1187" y1="1004" x2="1174.974" y2="1174"/>
			
				<line fill="none" stroke="#FFFFFF" stroke-width="2" stroke-miterlimit="10" x1="1024.372" y1="923.493" x2="1001.617" y2="847.055"/>
			<polygon fill="none" stroke="#FFFFFF" stroke-width="2" stroke-miterlimit="10" points="1281,936 1281,954 1361.666,960.742 
				1356.704,936 			"/>
			<path fill="#3F5D82" d="M1542.694,1076.236c0,0-155.239-31.498-207.363,0c-52.124,31.499-74.418,98.995-59.521,143.993
				c14.896,44.998,44.373,14.039,44.634-10.229c0,0-10.238-90.266,41.222-108.265c42.674-14.926,172.029,9,172.029,9
				S1562.193,1103.235,1542.694,1076.236z"/>
			<path fill="none" stroke="#263650" stroke-width="2" stroke-miterlimit="10" d="M883.696,538c0,0-27.362,24.593-24.029,28.963
				s24.029-9.473,24.029-9.473s-16.948,19.176-12.155,31.176"/>
			<path fill="none" stroke="#263650" stroke-width="2" stroke-miterlimit="10" d="M829.667,571.333
				c0,0,10.666,20.666,17.333,17.333S836.333,558,836.333,558"/>
			<line fill="none" stroke="#263650" stroke-width="2" stroke-miterlimit="10" x1="853" y1="547.333" x2="859.386" y2="558"/>
			
				<line fill="none" stroke="#263650" stroke-width="2" stroke-miterlimit="10" x1="865.667" y1="539.333" x2="871.541" y2="549.697"/>
			<path fill="none" stroke="#263650" stroke-width="2" stroke-miterlimit="10" d="M862.874,567.746c0,0,3.874,9.587,0,12.254
				S853,573.873,853,573.873"/>
			<path fill="none" stroke="#263650" stroke-width="2" stroke-miterlimit="10" d="M1283.033,589.03c0,0-20.395,3.303-24.547,9.47"
				/>
			<path fill="none" stroke="#263650" stroke-width="2" stroke-miterlimit="10" d="M1257,578.5c0,0,13.621-9.167,18.811-7.833"/>
			<path fill="none" stroke="#263650" stroke-width="2" stroke-miterlimit="10" d="M1264,564c0,0,11.068-5.333,19.033-0.667"/>
			<polyline fill="none" stroke="#263650" stroke-width="2" stroke-miterlimit="10" points="1193,598.5 1188.165,612 1193,612 			
				"/>
			<path fill="none" stroke="#263650" stroke-width="2" stroke-miterlimit="10" d="M1188.165,629.333c0,0,19.636,6,31.235-6.333
				c0,0-0.34,21.333-14.37,21.5S1188.165,629.333,1188.165,629.333z"/>
			<path fill="none" stroke="#263650" stroke-width="2" stroke-miterlimit="10" d="M1189,543.145c0,0-9.332-15.812,4-27.812"/>
			<path fill="none" stroke="#263650" stroke-width="2" stroke-miterlimit="10" d="M1205.03,522.667c0,0-7.751,10.956-5.225,20.478"
				/>
			<path fill="none" stroke="#263650" stroke-width="2" stroke-miterlimit="10" d="M1216.932,538c0,0-7.357-0.608-6.031,9.333"/>
			<path fill="none" stroke="#263650" stroke-width="2" stroke-miterlimit="10" d="M1190.582,658.548c0,0,16.948,6.785,26.35-2.548"
				/>
		</g>
		<rect x="358" y="1174" fill="#CCCCCC" width="1423" height="226"/>
		<polyline fill="none" stroke="#263650" stroke-width="2" stroke-miterlimit="10" points="259,1400 259,1274 1832,1274 1832,1400 
					"/>
		<line fill="none" stroke="#263650" stroke-width="2" stroke-miterlimit="10" x1="259" y1="1274" x2="358" y2="1174"/>
		<line fill="none" stroke="#263650" stroke-width="2" stroke-miterlimit="10" x1="358" y1="1283" x2="259" y2="1360.555"/>
		<line fill="none" stroke="#263650" stroke-width="2" stroke-miterlimit="10" x1="1718" y1="1273.5" x2="1832" y2="1337"/>
		<g>
			<polygon fill="#FFFFFF" points="978.161,1136 952.503,1224 655.837,1224 706.53,1136 			"/>
			<polygon fill="#263650" points="978.161,1136 1005,1217 952.503,1224 			"/>
			<line fill="none" stroke="#263650" stroke-width="2" stroke-miterlimit="10" x1="978" y1="1149" x2="699" y2="1149"/>
			<g>
				<path fill="none" stroke="#263650" stroke-width="2" stroke-miterlimit="10" d="M745.867,1213.033
					c0.149-16.924-15.417-34.258-13.737-50.472c21.709-0.115,26.728,16.105,5.204,23.159c15.077-4.087,20.976-0.1,27.101,14.134
					c2.191,5.093,5.358,9.444,0.48,13.058c-3.253,2.411-15.207,0.508-18.007-0.836"/>
				<path fill="none" stroke="#263650" stroke-width="2" stroke-miterlimit="10" d="M799.01,1163.225
					c0.057-1.385-7.793-7.103-12.899-3.816c-4.906,3.157-3.424,11.432-2.69,16.172c1.378,8.9,5.008,25.886,11.449,32.535
					c12.573,12.979,15.636-4.56,13.091-14.483c-2.606-10.16-5.542-19.356-8.993-29.408"/>
				<path fill="none" stroke="#263650" stroke-width="2" stroke-miterlimit="10" d="M850.535,1176.089
					c-0.157-6.485-9.652-17.687-17.256-10.36c-4.472,4.309,0.407,20.266,4.692,23.6c3.437,2.676,8.729,0.566,12.747,3.113
					c3.584,2.272,5.646,6.572,6.514,10.905c2.918,14.564-14.354,12.13-13.164,2.105"/>
				<path fill="none" stroke="#263650" stroke-width="2" stroke-miterlimit="10" d="M894.911,1177.957
					c-0.157-6.484-9.652-17.686-17.256-10.359c-4.472,4.309,0.408,20.266,4.693,23.6c3.436,2.675,8.729,0.566,12.747,3.113
					c3.584,2.271,5.646,6.572,6.514,10.904c2.917,14.564-14.354,12.131-13.164,2.106"/>
			</g>
		</g>
		<g>
			<path fill="#98B1D7" d="M1676,1092c0,0,107-144,85-180s-108,96-99,175L1676,1092z"/>
			<path fill="#98B1D7" d="M1648,1079c0,0-47.676-169-17.338-191s30.754,191,30.754,191H1648z"/>
			<path fill="#98B1D7" d="M1656.901,1077.363c0,0-11.636-175.21,22.601-190.448c34.236-15.239-9.475,193.228-9.475,193.228
				L1656.901,1077.363z"/>
			<polygon fill="#F5EDEB" points="1628.662,1210.5 1586.517,1079 1755,1079 1730,1210 			"/>
			<polygon fill="#263650" points="1616.869,1174 1586.469,1224 1730,1210 1628.766,1199 			"/>
			
				<line fill="none" stroke="#263650" stroke-width="2" stroke-miterlimit="10" x1="1620.562" y1="1080.143" x2="1640.988" y2="1210"/>
			<line fill="none" stroke="#263650" stroke-width="2" stroke-miterlimit="10" x1="1665" y1="1079" x2="1665" y2="1210"/>
			
				<line fill="none" stroke="#263650" stroke-width="2" stroke-miterlimit="10" x1="1700.186" y1="1078" x2="1692.598" y2="1205.936"/>
			<line fill="none" stroke="#263650" stroke-width="2" stroke-miterlimit="10" x1="1730" y1="1079" x2="1712.662" y2="1205.936"/>
			<path fill="none" stroke="#263650" stroke-width="2" stroke-miterlimit="10" d="M1630.662,888c0,0,14.329,160.266,24.334,190"/>
			<path fill="none" stroke="#263650" stroke-width="2" stroke-miterlimit="10" d="M1761,912c0,0-78.406,119.768-87.203,166"/>
			<path fill="none" stroke="#263650" stroke-width="2" stroke-miterlimit="10" d="M1679.502,886.915
				c0,0-21.67,146.897-18.086,183.858"/>
		</g>
		<g>
			<path fill="#CDE0F2" d="M1169.697,399.771l41.203,37.719l-7.506-63.217c0,0,119.147-65.554,86.73-137.772
				c-32.416-72.218-149.346-84.217-213.125-36.219s-98.277,121.938-53.279,186.212
				C1068.719,450.768,1169.697,399.771,1169.697,399.771z"/>
			<path fill="none" stroke="#263650" stroke-width="2" stroke-miterlimit="10" d="M1180.394,381.658l30.571,46.069l6.338-66.647
				c0,0,127.088-48.393,105.003-124.409c-22.085-76.017-136.221-104.12-206.041-65.434
				c-69.819,38.687-114.241,107.126-78.595,177.021S1180.394,381.658,1180.394,381.658z"/>
			<path fill="#1D355C" d="M1129.666,310c16,3.333,25.334,0,25.334,0s12.666,38.667-14,38.667S1127,310,1127,310"/>
			<path fill="#FECF06" d="M1155,310c0,0,30-14.666,27.333-48.666s-32-42-50-38s-73.481,38.135-6.407,87.567"/>
			<path fill="none" stroke="#263650" stroke-width="2" stroke-miterlimit="10" d="M1138.084,311.248c0,0-8.097-39.248-14.09-44.248
				c-5.994-5-14.007,11,0,9"/>
			<path fill="none" stroke="#263650" stroke-width="2" stroke-miterlimit="10" d="M1147.213,311.248c0,0,8.097-39.248,14.09-44.248
				c5.994-5,14.007,11,0,9"/>
		</g>
		<g>
			<polygon fill="none" stroke="#263650" stroke-width="2" stroke-miterlimit="10" points="376,330 393,580 708,580 696,330 			"/>
			<polygon fill="#CDE0F2" points="432,557 477,557 477,488 432,489 			"/>
			<polygon fill="#2878E7" points="510,557 555,557 555,437.489 510,439.221 			"/>
			<polygon fill="#F80F30" points="595,557 640,557 640,359.158 595,362.025 			"/>
			<polygon fill="none" stroke="#263650" stroke-width="2" stroke-miterlimit="10" points="728,167 728,310 969,305 964,161 			"/>
			<path fill="none" stroke="#263650" stroke-width="2" stroke-miterlimit="10" d="M758,180c0,0,1,22-18,19v80c0,0,16-2,18,21l181-8
				c0,0,4-16,14-18v-82c0,0-14-2-17-19L758,180z"/>
			<rect x="790" y="249" fill="none" stroke="#263650" stroke-width="2" stroke-miterlimit="10" width="113" height="18"/>
			<circle fill="#F80F30" cx="840.5" cy="214.5" r="25.979"/>
			<polygon fill="#E6E6E8" points="313,303.152 313,413.799 432,405.059 432,289 			"/>
			<polygon fill="none" stroke="#263650" stroke-width="2" stroke-miterlimit="10" points="329,317.305 329,379.061 409,379.265 
				409,316.019 			"/>
			<polygon fill="none" stroke="#263650" stroke-width="2" stroke-miterlimit="10" points="381.197,363.15 369.536,358.1 
				358.764,364.842 359.964,352.19 350.223,344.03 362.625,341.262 367.376,329.476 373.842,340.416 386.52,341.292 
				378.112,350.822 			"/>
		</g>
		<g>
			<polygon fill="#1D355C" points="456,1142 341,996 490,935.85 591,1044 			"/>
			<polygon fill="#2878E7" points="458.625,1128.158 357.786,1000.137 488.438,947.394 577,1042.227 			"/>
			<polygon fill="#F80F30" points="719,1050 719,1065 644,1154 456,1154 456,1142 591,1044 			"/>
			<polygon fill="#1D355C" points="719,1050 639,1142 456,1142 591,1044 			"/>
			<polygon fill="#98B1D7" points="597.5,1052 499.5,1128.158 587.5,1131.5 657,1055.5 			"/>
			<polygon fill="#CCCCCC" points="653,1078 632.5,1101.5 657,1105.5 678,1081.5 			"/>
			<polygon fill="none" stroke="#FFFFFF" stroke-width="2" stroke-miterlimit="10" points="461.667,1105.5 482.333,1093 
				461.667,1063.874 443,1074 			"/>
			<polygon fill="none" stroke="#FFFFFF" stroke-width="2" stroke-miterlimit="10" points="485.667,1088.5 506.333,1076 
				447.667,1001.334 433,1012.668 			"/>
			<circle fill="none" stroke="#FFFFFF" stroke-width="2" stroke-miterlimit="10" cx="484.583" cy="983.584" r="14.917"/>
			<polygon fill="none" stroke="#FFFFFF" stroke-width="2" stroke-miterlimit="10" points="490.758,1019.501 522,1001.334 522,1007 
				495,1023.353 			"/>
			<polyline fill="none" stroke="#FFFFFF" stroke-width="2" stroke-miterlimit="10" points="485,969 485,984 499.5,983.584 			"/>
			<circle fill="none" stroke="#FFFFFF" stroke-width="2" stroke-miterlimit="10" cx="514.189" cy="1037.812" r="7.811"/>
			<circle fill="#F80F30" cx="540" cy="1037.001" r="10.333"/>
			<line fill="none" stroke="#FFFFFF" stroke-width="2" stroke-miterlimit="10" x1="540" y1="1037" x2="540" y2="1027"/>
			<line fill="none" stroke="#263650" stroke-width="2" stroke-miterlimit="10" x1="606.74" y1="1052" x2="517" y2="1128.158"/>
			
				<line fill="none" stroke="#263650" stroke-width="2" stroke-miterlimit="10" x1="615.643" y1="1053.067" x2="536.35" y2="1129.558"/>
			
				<line fill="none" stroke="#263650" stroke-width="2" stroke-miterlimit="10" x1="625.667" y1="1053.067" x2="556.333" y2="1129.558"/>
			
				<line fill="none" stroke="#263650" stroke-width="2" stroke-miterlimit="10" x1="640.342" y1="1054.521" x2="575.996" y2="1131.5"/>
			
				<line fill="none" stroke="#263650" stroke-width="2" stroke-miterlimit="10" x1="591" y1="1054.521" x2="649.342" y2="1063.874"/>
			
				<line fill="none" stroke="#263650" stroke-width="2" stroke-miterlimit="10" x1="514.189" y1="1116.742" x2="597.553" y2="1120.507"/>
			
				<line fill="none" stroke="#263650" stroke-width="2" stroke-miterlimit="10" x1="582.221" y1="1063.874" x2="625.667" y2="1072.077"/>
			
				<line fill="none" stroke="#263650" stroke-width="2" stroke-miterlimit="10" x1="564.043" y1="1078" x2="615.126" y2="1084.688"/>
			
				<line fill="none" stroke="#263650" stroke-width="2" stroke-miterlimit="10" x1="555.438" y1="1084.688" x2="606.74" y2="1094.72"/>
			
				<line fill="none" stroke="#263650" stroke-width="2" stroke-miterlimit="10" x1="542.528" y1="1094.72" x2="597.553" y2="1105.5"/>
			
				<line fill="none" stroke="#263650" stroke-width="2" stroke-miterlimit="10" x1="529.667" y1="1104.715" x2="592.913" y2="1111.262"/>
		</g>
		<g>
			<g>
				<polygon fill="#FFFFFF" points="1134.168,1165 1069.5,1243 1188,1243 1227.516,1165 				"/>
				
					<line fill="none" stroke="#263650" stroke-width="2" stroke-miterlimit="10" x1="1103.667" y1="1228.666" x2="1165.43" y2="1231.333"/>
				<line fill="none" stroke="#263650" stroke-width="2" stroke-miterlimit="10" x1="1116" y1="1204" x2="1188" y2="1204"/>
				<line fill="none" stroke="#263650" stroke-width="2" stroke-miterlimit="10" x1="1119" y1="1199" x2="1191" y2="1199"/>
				<line fill="none" stroke="#263650" stroke-width="2" stroke-miterlimit="10" x1="1124" y1="1192" x2="1196" y2="1192"/>
				<line fill="none" stroke="#263650" stroke-width="2" stroke-miterlimit="10" x1="1129" y1="1186" x2="1201" y2="1186"/>
			</g>
			<g>
				<path fill="none" stroke="#263650" stroke-width="2" stroke-miterlimit="10" d="M1252.151,1185.564L1228,1239.333V1248l9-5
					l26-55.667C1263,1187.333,1261.303,1177.796,1252.151,1185.564z"/>
				
					<line fill="none" stroke="#263650" stroke-width="2" stroke-miterlimit="10" x1="1229.663" y1="1235.631" x2="1240.004" y2="1236.568"/>
				<path fill="none" stroke="#263650" stroke-width="2" stroke-miterlimit="10" d="M1240.004,1212.607
					c4.996,0.726,4.028-2.962,9.846,2.882"/>
				<path fill="none" stroke="#263650" stroke-width="2" stroke-miterlimit="10" d="M1263,1187.333c0,0,6.001,2.001,5.334,4.667
					s-7.334,18-7.334,18l-5.333,2.118"/>
			</g>
		</g>
	</g>
</g>
</svg>
